<mxfile host="app.diagrams.net" modified="2023-09-10T21:18:27.496Z" agent="Mozilla/5.0 (Windows NT 10.0; Win64; x64; rv:109.0) Gecko/20100101 Firefox/117.0" etag="NE5P2ywwrT37OdYOqFz0" version="21.7.4" type="device">
  <diagram name="Страница — 1" id="tHWk73P_PaQuCRavGto3">
    <mxGraphModel dx="1313" dy="1877" grid="1" gridSize="10" guides="1" tooltips="1" connect="1" arrows="1" fold="1" page="1" pageScale="1" pageWidth="827" pageHeight="1169" math="0" shadow="0">
      <root>
        <mxCell id="0" />
        <mxCell id="1" parent="0" />
        <mxCell id="9HgOVvUjEggW6HavxXkO-4" value="&lt;h1&gt;Модифицированный алгоритм z-буфера&lt;br&gt;&lt;/h1&gt;&lt;p&gt;&lt;b&gt;входные данные:&lt;/b&gt;&lt;br&gt;&lt;/p&gt;&lt;p&gt;буфер кадра = БК, буфер глубины = БГ,&amp;nbsp; массив с многоугольниками сцены, атрибуты многоугольников (color), массив с источниками света .&lt;br&gt;&lt;/p&gt;&lt;p&gt;&lt;b&gt;Выходные данные: &lt;/b&gt;финальное изображение&lt;br&gt;&lt;/p&gt;&lt;p&gt;&lt;br&gt;&lt;/p&gt;&lt;p&gt;&amp;nbsp;&lt;br&gt;&lt;/p&gt;" style="text;html=1;strokeColor=none;fillColor=none;spacing=5;spacingTop=-20;whiteSpace=wrap;overflow=hidden;rounded=0;" vertex="1" parent="1">
          <mxGeometry x="10" y="-1150" width="260" height="210" as="geometry" />
        </mxCell>
        <mxCell id="9HgOVvUjEggW6HavxXkO-5" style="edgeStyle=orthogonalEdgeStyle;rounded=0;orthogonalLoop=1;jettySize=auto;html=1;exitX=0.5;exitY=1;exitDx=0;exitDy=0;" edge="1" parent="1" source="9HgOVvUjEggW6HavxXkO-4" target="9HgOVvUjEggW6HavxXkO-4">
          <mxGeometry relative="1" as="geometry" />
        </mxCell>
        <mxCell id="9HgOVvUjEggW6HavxXkO-7" value="" style="endArrow=none;html=1;rounded=0;exitX=1;exitY=1;exitDx=0;exitDy=0;" edge="1" parent="1" source="9HgOVvUjEggW6HavxXkO-4">
          <mxGeometry width="50" height="50" relative="1" as="geometry">
            <mxPoint x="280" y="-1060" as="sourcePoint" />
            <mxPoint x="270" y="-1150" as="targetPoint" />
          </mxGeometry>
        </mxCell>
        <mxCell id="9HgOVvUjEggW6HavxXkO-8" value="" style="endArrow=none;html=1;rounded=0;" edge="1" parent="1">
          <mxGeometry width="50" height="50" relative="1" as="geometry">
            <mxPoint x="200" y="-1150" as="sourcePoint" />
            <mxPoint x="270" y="-1150" as="targetPoint" />
          </mxGeometry>
        </mxCell>
        <mxCell id="9HgOVvUjEggW6HavxXkO-10" value="" style="endArrow=none;html=1;rounded=0;exitX=1;exitY=1;exitDx=0;exitDy=0;entryX=0.75;entryY=1;entryDx=0;entryDy=0;" edge="1" parent="1" source="9HgOVvUjEggW6HavxXkO-4" target="9HgOVvUjEggW6HavxXkO-4">
          <mxGeometry width="50" height="50" relative="1" as="geometry">
            <mxPoint x="280" y="-1060" as="sourcePoint" />
            <mxPoint x="330" y="-1110" as="targetPoint" />
          </mxGeometry>
        </mxCell>
        <mxCell id="9HgOVvUjEggW6HavxXkO-12" value="" style="endArrow=none;dashed=1;html=1;rounded=0;entryX=0;entryY=0.5;entryDx=0;entryDy=0;" edge="1" parent="1">
          <mxGeometry width="50" height="50" relative="1" as="geometry">
            <mxPoint x="270" y="-1110" as="sourcePoint" />
            <mxPoint x="330" y="-1110" as="targetPoint" />
          </mxGeometry>
        </mxCell>
        <mxCell id="9HgOVvUjEggW6HavxXkO-66" style="edgeStyle=orthogonalEdgeStyle;rounded=0;orthogonalLoop=1;jettySize=auto;html=1;entryX=0.5;entryY=0;entryDx=0;entryDy=0;" edge="1" parent="1" source="9HgOVvUjEggW6HavxXkO-14" target="9HgOVvUjEggW6HavxXkO-65">
          <mxGeometry relative="1" as="geometry" />
        </mxCell>
        <mxCell id="9HgOVvUjEggW6HavxXkO-14" value="&lt;div&gt;БТ = минимальное значение  z&lt;br&gt;&lt;/div&gt;" style="rounded=0;whiteSpace=wrap;html=1;" vertex="1" parent="1">
          <mxGeometry x="290" y="-950" width="160" height="50" as="geometry" />
        </mxCell>
        <mxCell id="9HgOVvUjEggW6HavxXkO-64" style="edgeStyle=orthogonalEdgeStyle;rounded=0;orthogonalLoop=1;jettySize=auto;html=1;entryX=0.5;entryY=0;entryDx=0;entryDy=0;" edge="1" parent="1" source="9HgOVvUjEggW6HavxXkO-16" target="9HgOVvUjEggW6HavxXkO-14">
          <mxGeometry relative="1" as="geometry" />
        </mxCell>
        <mxCell id="9HgOVvUjEggW6HavxXkO-16" value="для каждого источника света" style="shape=loopLimit;whiteSpace=wrap;html=1;" vertex="1" parent="1">
          <mxGeometry x="290" y="-1040" width="160" height="60" as="geometry" />
        </mxCell>
        <mxCell id="9HgOVvUjEggW6HavxXkO-83" style="edgeStyle=orthogonalEdgeStyle;rounded=0;orthogonalLoop=1;jettySize=auto;html=1;entryX=0.5;entryY=0;entryDx=0;entryDy=0;" edge="1" parent="1" source="9HgOVvUjEggW6HavxXkO-20" target="9HgOVvUjEggW6HavxXkO-24">
          <mxGeometry relative="1" as="geometry" />
        </mxCell>
        <mxCell id="9HgOVvUjEggW6HavxXkO-20" value="для каждого пикселя (𝑥, 𝑦) в многоугольнике " style="shape=loopLimit;whiteSpace=wrap;html=1;" vertex="1" parent="1">
          <mxGeometry x="290" y="-520" width="160" height="60" as="geometry" />
        </mxCell>
        <mxCell id="9HgOVvUjEggW6HavxXkO-85" style="edgeStyle=orthogonalEdgeStyle;rounded=0;orthogonalLoop=1;jettySize=auto;html=1;exitX=0.5;exitY=1;exitDx=0;exitDy=0;entryX=0.5;entryY=0;entryDx=0;entryDy=0;" edge="1" parent="1" source="9HgOVvUjEggW6HavxXkO-24">
          <mxGeometry relative="1" as="geometry">
            <mxPoint x="370" y="-370" as="targetPoint" />
          </mxGeometry>
        </mxCell>
        <mxCell id="9HgOVvUjEggW6HavxXkO-24" value="вычислить глубину пикселя 𝑧(𝑥, 𝑦)" style="rounded=0;whiteSpace=wrap;html=1;" vertex="1" parent="1">
          <mxGeometry x="290" y="-430" width="160" height="40" as="geometry" />
        </mxCell>
        <mxCell id="9HgOVvUjEggW6HavxXkO-40" style="edgeStyle=orthogonalEdgeStyle;rounded=0;orthogonalLoop=1;jettySize=auto;html=1;entryX=0.5;entryY=1;entryDx=0;entryDy=0;exitX=0.5;exitY=1;exitDx=0;exitDy=0;" edge="1" parent="1" target="9HgOVvUjEggW6HavxXkO-39">
          <mxGeometry relative="1" as="geometry">
            <mxPoint x="370" y="-290" as="sourcePoint" />
          </mxGeometry>
        </mxCell>
        <mxCell id="9HgOVvUjEggW6HavxXkO-36" value="&lt;div&gt;для каждого пикселя (𝑥, 𝑦) в многоугольнике &lt;/div&gt;&lt;div&gt;&lt;br&gt;&lt;/div&gt;" style="shape=loopLimit;whiteSpace=wrap;html=1;flipV=1;strokeWidth=1;" vertex="1" parent="1">
          <mxGeometry x="290" y="-310" width="160" height="60" as="geometry" />
        </mxCell>
        <mxCell id="9HgOVvUjEggW6HavxXkO-87" style="edgeStyle=orthogonalEdgeStyle;rounded=0;orthogonalLoop=1;jettySize=auto;html=1;entryX=0.5;entryY=0;entryDx=0;entryDy=0;" edge="1" parent="1" source="9HgOVvUjEggW6HavxXkO-39" target="9HgOVvUjEggW6HavxXkO-41">
          <mxGeometry relative="1" as="geometry" />
        </mxCell>
        <mxCell id="9HgOVvUjEggW6HavxXkO-39" value="для каждого многоугольника сцены" style="shape=loopLimit;whiteSpace=wrap;html=1;direction=west;" vertex="1" parent="1">
          <mxGeometry x="290" y="-230" width="160" height="60" as="geometry" />
        </mxCell>
        <mxCell id="9HgOVvUjEggW6HavxXkO-133" style="edgeStyle=orthogonalEdgeStyle;rounded=0;orthogonalLoop=1;jettySize=auto;html=1;exitX=0.5;exitY=1;exitDx=0;exitDy=0;entryX=0.5;entryY=0;entryDx=0;entryDy=0;entryPerimeter=0;" edge="1" parent="1" source="9HgOVvUjEggW6HavxXkO-41" target="9HgOVvUjEggW6HavxXkO-45">
          <mxGeometry relative="1" as="geometry" />
        </mxCell>
        <mxCell id="9HgOVvUjEggW6HavxXkO-41" value="финальное изображение " style="shape=parallelogram;html=1;strokeWidth=1;perimeter=parallelogramPerimeter;whiteSpace=wrap;rounded=1;arcSize=12;size=0.23;" vertex="1" parent="1">
          <mxGeometry x="280" y="-140" width="180" height="60" as="geometry" />
        </mxCell>
        <mxCell id="9HgOVvUjEggW6HavxXkO-63" style="edgeStyle=orthogonalEdgeStyle;rounded=0;orthogonalLoop=1;jettySize=auto;html=1;entryX=0.5;entryY=0;entryDx=0;entryDy=0;" edge="1" parent="1" source="9HgOVvUjEggW6HavxXkO-43" target="9HgOVvUjEggW6HavxXkO-16">
          <mxGeometry relative="1" as="geometry" />
        </mxCell>
        <mxCell id="9HgOVvUjEggW6HavxXkO-43" value="Начало" style="strokeWidth=1;html=1;shape=mxgraph.flowchart.terminator;whiteSpace=wrap;" vertex="1" parent="1">
          <mxGeometry x="290" y="-1130" width="160" height="60" as="geometry" />
        </mxCell>
        <mxCell id="9HgOVvUjEggW6HavxXkO-45" value="&lt;div&gt;конец&lt;/div&gt;" style="strokeWidth=1;html=1;shape=mxgraph.flowchart.terminator;whiteSpace=wrap;" vertex="1" parent="1">
          <mxGeometry x="290" y="-60" width="160" height="50" as="geometry" />
        </mxCell>
        <mxCell id="9HgOVvUjEggW6HavxXkO-59" style="edgeStyle=orthogonalEdgeStyle;rounded=0;orthogonalLoop=1;jettySize=auto;html=1;exitX=0.5;exitY=1;exitDx=0;exitDy=0;" edge="1" parent="1" source="9HgOVvUjEggW6HavxXkO-4" target="9HgOVvUjEggW6HavxXkO-4">
          <mxGeometry relative="1" as="geometry" />
        </mxCell>
        <mxCell id="9HgOVvUjEggW6HavxXkO-73" style="edgeStyle=orthogonalEdgeStyle;rounded=0;orthogonalLoop=1;jettySize=auto;html=1;entryX=0.5;entryY=0;entryDx=0;entryDy=0;" edge="1" parent="1" source="9HgOVvUjEggW6HavxXkO-65" target="9HgOVvUjEggW6HavxXkO-72">
          <mxGeometry relative="1" as="geometry" />
        </mxCell>
        <mxCell id="9HgOVvUjEggW6HavxXkO-65" value="&lt;div&gt;Определить БТ для источника&lt;br&gt;&lt;/div&gt;" style="rounded=0;whiteSpace=wrap;html=1;" vertex="1" parent="1">
          <mxGeometry x="290" y="-870" width="160" height="50" as="geometry" />
        </mxCell>
        <mxCell id="9HgOVvUjEggW6HavxXkO-68" value="БT = Буфер тени" style="text;html=1;strokeColor=none;fillColor=none;align=center;verticalAlign=middle;whiteSpace=wrap;rounded=0;" vertex="1" parent="1">
          <mxGeometry x="150" y="-860" width="120" height="30" as="geometry" />
        </mxCell>
        <mxCell id="9HgOVvUjEggW6HavxXkO-70" value="" style="endArrow=none;html=1;rounded=0;entryX=0.75;entryY=0;entryDx=0;entryDy=0;exitX=0.75;exitY=1;exitDx=0;exitDy=0;" edge="1" parent="1" source="9HgOVvUjEggW6HavxXkO-68" target="9HgOVvUjEggW6HavxXkO-68">
          <mxGeometry width="50" height="50" relative="1" as="geometry">
            <mxPoint x="240" y="-810" as="sourcePoint" />
            <mxPoint x="280" y="-850" as="targetPoint" />
            <Array as="points">
              <mxPoint x="270" y="-830" />
              <mxPoint x="270" y="-860" />
            </Array>
          </mxGeometry>
        </mxCell>
        <mxCell id="9HgOVvUjEggW6HavxXkO-71" value="" style="endArrow=none;dashed=1;html=1;dashPattern=1 3;strokeWidth=2;rounded=0;exitX=1;exitY=0.5;exitDx=0;exitDy=0;entryX=0;entryY=0.5;entryDx=0;entryDy=0;" edge="1" parent="1" source="9HgOVvUjEggW6HavxXkO-68" target="9HgOVvUjEggW6HavxXkO-65">
          <mxGeometry width="50" height="50" relative="1" as="geometry">
            <mxPoint x="270" y="-780" as="sourcePoint" />
            <mxPoint x="320" y="-830" as="targetPoint" />
          </mxGeometry>
        </mxCell>
        <mxCell id="9HgOVvUjEggW6HavxXkO-75" style="edgeStyle=orthogonalEdgeStyle;rounded=0;orthogonalLoop=1;jettySize=auto;html=1;exitX=0.5;exitY=1;exitDx=0;exitDy=0;entryX=0.5;entryY=0;entryDx=0;entryDy=0;" edge="1" parent="1" source="9HgOVvUjEggW6HavxXkO-72" target="9HgOVvUjEggW6HavxXkO-74">
          <mxGeometry relative="1" as="geometry" />
        </mxCell>
        <mxCell id="9HgOVvUjEggW6HavxXkO-72" value="для каждого источника света" style="shape=loopLimit;whiteSpace=wrap;html=1;flipV=1;" vertex="1" parent="1">
          <mxGeometry x="290" y="-790" width="160" height="60" as="geometry" />
        </mxCell>
        <mxCell id="9HgOVvUjEggW6HavxXkO-80" style="edgeStyle=orthogonalEdgeStyle;rounded=0;orthogonalLoop=1;jettySize=auto;html=1;entryX=0.502;entryY=-0.029;entryDx=0;entryDy=0;entryPerimeter=0;" edge="1" parent="1" source="9HgOVvUjEggW6HavxXkO-74" target="9HgOVvUjEggW6HavxXkO-79">
          <mxGeometry relative="1" as="geometry" />
        </mxCell>
        <mxCell id="9HgOVvUjEggW6HavxXkO-74" value="&lt;div&gt;БК = фоновое значение &lt;br&gt;&lt;/div&gt;&lt;div&gt;&lt;br&gt;&lt;/div&gt;&lt;div&gt;БГ = минимальное значение  z&lt;/div&gt;" style="rounded=0;whiteSpace=wrap;html=1;" vertex="1" parent="1">
          <mxGeometry x="290" y="-700" width="160" height="60" as="geometry" />
        </mxCell>
        <mxCell id="9HgOVvUjEggW6HavxXkO-82" style="edgeStyle=orthogonalEdgeStyle;rounded=0;orthogonalLoop=1;jettySize=auto;html=1;entryX=0.5;entryY=0;entryDx=0;entryDy=0;" edge="1" parent="1" source="9HgOVvUjEggW6HavxXkO-79" target="9HgOVvUjEggW6HavxXkO-20">
          <mxGeometry relative="1" as="geometry" />
        </mxCell>
        <mxCell id="9HgOVvUjEggW6HavxXkO-79" value="для каждого многоугольника сцены " style="shape=loopLimit;whiteSpace=wrap;html=1;" vertex="1" parent="1">
          <mxGeometry x="290" y="-610" width="160" height="60" as="geometry" />
        </mxCell>
        <mxCell id="9HgOVvUjEggW6HavxXkO-86" style="edgeStyle=orthogonalEdgeStyle;rounded=0;orthogonalLoop=1;jettySize=auto;html=1;entryX=0.5;entryY=0;entryDx=0;entryDy=0;" edge="1" parent="1" target="9HgOVvUjEggW6HavxXkO-36">
          <mxGeometry relative="1" as="geometry">
            <mxPoint x="370" y="-340" as="sourcePoint" />
          </mxGeometry>
        </mxCell>
        <mxCell id="9HgOVvUjEggW6HavxXkO-100" style="edgeStyle=orthogonalEdgeStyle;rounded=0;orthogonalLoop=1;jettySize=auto;html=1;entryX=0.5;entryY=0;entryDx=0;entryDy=0;" edge="1" parent="1" target="9HgOVvUjEggW6HavxXkO-99">
          <mxGeometry relative="1" as="geometry">
            <mxPoint x="650" y="-1000" as="sourcePoint" />
          </mxGeometry>
        </mxCell>
        <mxCell id="9HgOVvUjEggW6HavxXkO-109" style="edgeStyle=orthogonalEdgeStyle;rounded=0;orthogonalLoop=1;jettySize=auto;html=1;exitX=1;exitY=0.5;exitDx=0;exitDy=0;entryX=0.522;entryY=0.008;entryDx=0;entryDy=0;entryPerimeter=0;" edge="1" parent="1" source="9HgOVvUjEggW6HavxXkO-99" target="9HgOVvUjEggW6HavxXkO-106">
          <mxGeometry relative="1" as="geometry" />
        </mxCell>
        <mxCell id="9HgOVvUjEggW6HavxXkO-110" value="&lt;div&gt;Да&lt;/div&gt;" style="edgeLabel;html=1;align=center;verticalAlign=middle;resizable=0;points=[];" vertex="1" connectable="0" parent="9HgOVvUjEggW6HavxXkO-109">
          <mxGeometry x="-0.4695" y="-2" relative="1" as="geometry">
            <mxPoint y="-7" as="offset" />
          </mxGeometry>
        </mxCell>
        <mxCell id="9HgOVvUjEggW6HavxXkO-140" style="edgeStyle=orthogonalEdgeStyle;rounded=0;orthogonalLoop=1;jettySize=auto;html=1;entryX=0;entryY=0.5;entryDx=0;entryDy=0;entryPerimeter=0;" edge="1" parent="1" source="9HgOVvUjEggW6HavxXkO-99" target="9HgOVvUjEggW6HavxXkO-134">
          <mxGeometry relative="1" as="geometry">
            <mxPoint x="480" y="-320" as="targetPoint" />
            <Array as="points">
              <mxPoint x="480" y="-945" />
              <mxPoint x="480" y="-325" />
            </Array>
          </mxGeometry>
        </mxCell>
        <mxCell id="9HgOVvUjEggW6HavxXkO-99" value="&lt;i&gt;𝑧(𝑥, 𝑦) &amp;gt; БГ&lt;/i&gt;&lt;i&gt;(𝑥, 𝑦)&lt;/i&gt;?" style="rhombus;whiteSpace=wrap;html=1;" vertex="1" parent="1">
          <mxGeometry x="570" y="-970" width="160" height="50" as="geometry" />
        </mxCell>
        <mxCell id="9HgOVvUjEggW6HavxXkO-103" style="edgeStyle=orthogonalEdgeStyle;rounded=0;orthogonalLoop=1;jettySize=auto;html=1;entryX=0.5;entryY=0;entryDx=0;entryDy=0;" edge="1" parent="1" target="9HgOVvUjEggW6HavxXkO-102">
          <mxGeometry relative="1" as="geometry">
            <mxPoint x="670" y="-460" as="sourcePoint" />
          </mxGeometry>
        </mxCell>
        <mxCell id="9HgOVvUjEggW6HavxXkO-101" value="&lt;i&gt;БГ&lt;/i&gt;&lt;i&gt;(𝑥, 𝑦) =&amp;nbsp; &lt;/i&gt;&lt;i&gt;𝑧(𝑥, 𝑦) &lt;/i&gt;" style="rounded=0;whiteSpace=wrap;html=1;" vertex="1" parent="1">
          <mxGeometry x="590" y="-480" width="160" height="30" as="geometry" />
        </mxCell>
        <mxCell id="9HgOVvUjEggW6HavxXkO-132" style="edgeStyle=orthogonalEdgeStyle;rounded=0;orthogonalLoop=1;jettySize=auto;html=1;" edge="1" parent="1" source="9HgOVvUjEggW6HavxXkO-102">
          <mxGeometry relative="1" as="geometry">
            <mxPoint x="670" y="-350" as="targetPoint" />
          </mxGeometry>
        </mxCell>
        <mxCell id="9HgOVvUjEggW6HavxXkO-102" value="color&lt;i&gt;(𝑥, 𝑦) &lt;/i&gt; =&amp;nbsp;color&lt;i&gt;(𝑥, 𝑦) &lt;/i&gt; + Флаг_видимости " style="rounded=0;whiteSpace=wrap;html=1;" vertex="1" parent="1">
          <mxGeometry x="590" y="-420" width="160" height="50" as="geometry" />
        </mxCell>
        <mxCell id="9HgOVvUjEggW6HavxXkO-111" style="edgeStyle=orthogonalEdgeStyle;rounded=0;orthogonalLoop=1;jettySize=auto;html=1;" edge="1" parent="1" source="9HgOVvUjEggW6HavxXkO-106">
          <mxGeometry relative="1" as="geometry">
            <mxPoint x="747" y="-820" as="targetPoint" />
          </mxGeometry>
        </mxCell>
        <mxCell id="9HgOVvUjEggW6HavxXkO-106" value="для каждого источника света" style="shape=loopLimit;whiteSpace=wrap;html=1;" vertex="1" parent="1">
          <mxGeometry x="667" y="-900" width="160" height="50" as="geometry" />
        </mxCell>
        <mxCell id="9HgOVvUjEggW6HavxXkO-117" style="edgeStyle=orthogonalEdgeStyle;rounded=0;orthogonalLoop=1;jettySize=auto;html=1;entryX=0.5;entryY=0;entryDx=0;entryDy=0;" edge="1" parent="1" source="9HgOVvUjEggW6HavxXkO-112" target="9HgOVvUjEggW6HavxXkO-116">
          <mxGeometry relative="1" as="geometry" />
        </mxCell>
        <mxCell id="9HgOVvUjEggW6HavxXkO-112" value="&amp;nbsp;преобразовать координаты точки, наблюдателя (x, y, z)в координаты точки источника света (x&#39;, y&#39;, z&#39;)" style="rounded=0;whiteSpace=wrap;html=1;" vertex="1" parent="1">
          <mxGeometry x="670" y="-820" width="157" height="70" as="geometry" />
        </mxCell>
        <mxCell id="9HgOVvUjEggW6HavxXkO-122" style="edgeStyle=orthogonalEdgeStyle;rounded=0;orthogonalLoop=1;jettySize=auto;html=1;exitX=1;exitY=0.5;exitDx=0;exitDy=0;entryX=0.7;entryY=-0.108;entryDx=0;entryDy=0;entryPerimeter=0;" edge="1" parent="1" source="9HgOVvUjEggW6HavxXkO-116" target="9HgOVvUjEggW6HavxXkO-118">
          <mxGeometry relative="1" as="geometry" />
        </mxCell>
        <mxCell id="9HgOVvUjEggW6HavxXkO-141" value="Да" style="edgeLabel;html=1;align=center;verticalAlign=middle;resizable=0;points=[];" vertex="1" connectable="0" parent="9HgOVvUjEggW6HavxXkO-122">
          <mxGeometry x="-0.3522" y="-2" relative="1" as="geometry">
            <mxPoint x="9" y="-7" as="offset" />
          </mxGeometry>
        </mxCell>
        <mxCell id="9HgOVvUjEggW6HavxXkO-126" style="edgeStyle=orthogonalEdgeStyle;rounded=0;orthogonalLoop=1;jettySize=auto;html=1;entryX=0.25;entryY=0;entryDx=0;entryDy=0;exitX=0;exitY=0.5;exitDx=0;exitDy=0;" edge="1" parent="1" source="9HgOVvUjEggW6HavxXkO-116" target="9HgOVvUjEggW6HavxXkO-123">
          <mxGeometry relative="1" as="geometry">
            <mxPoint x="590" y="-715" as="sourcePoint" />
            <Array as="points">
              <mxPoint x="538" y="-685" />
            </Array>
          </mxGeometry>
        </mxCell>
        <mxCell id="9HgOVvUjEggW6HavxXkO-116" value="&lt;i&gt;𝑧(𝑥&#39;, 𝑦&#39;) &amp;gt; БT&lt;/i&gt;&lt;i&gt;(𝑥&#39;, 𝑦&#39;)&lt;/i&gt;?" style="rhombus;whiteSpace=wrap;html=1;" vertex="1" parent="1">
          <mxGeometry x="590" y="-710" width="160" height="50" as="geometry" />
        </mxCell>
        <mxCell id="9HgOVvUjEggW6HavxXkO-128" style="edgeStyle=orthogonalEdgeStyle;rounded=0;orthogonalLoop=1;jettySize=auto;html=1;entryX=0.5;entryY=0;entryDx=0;entryDy=0;" edge="1" parent="1" source="9HgOVvUjEggW6HavxXkO-118" target="9HgOVvUjEggW6HavxXkO-127">
          <mxGeometry relative="1" as="geometry" />
        </mxCell>
        <mxCell id="9HgOVvUjEggW6HavxXkO-118" value="Флаг_видимости = 1 " style="rounded=0;whiteSpace=wrap;html=1;" vertex="1" parent="1">
          <mxGeometry x="670" y="-640" width="150" height="40" as="geometry" />
        </mxCell>
        <mxCell id="9HgOVvUjEggW6HavxXkO-129" style="edgeStyle=orthogonalEdgeStyle;rounded=0;orthogonalLoop=1;jettySize=auto;html=1;entryX=0.5;entryY=0;entryDx=0;entryDy=0;" edge="1" parent="1" source="9HgOVvUjEggW6HavxXkO-123" target="9HgOVvUjEggW6HavxXkO-127">
          <mxGeometry relative="1" as="geometry" />
        </mxCell>
        <mxCell id="9HgOVvUjEggW6HavxXkO-123" value="Флаг_видимости = 0 " style="rounded=0;whiteSpace=wrap;html=1;" vertex="1" parent="1">
          <mxGeometry x="500" y="-640" width="150" height="40" as="geometry" />
        </mxCell>
        <mxCell id="9HgOVvUjEggW6HavxXkO-130" style="edgeStyle=orthogonalEdgeStyle;rounded=0;orthogonalLoop=1;jettySize=auto;html=1;" edge="1" parent="1" source="9HgOVvUjEggW6HavxXkO-127">
          <mxGeometry relative="1" as="geometry">
            <mxPoint x="670" y="-480" as="targetPoint" />
          </mxGeometry>
        </mxCell>
        <mxCell id="9HgOVvUjEggW6HavxXkO-127" value="для каждого источника света" style="shape=loopLimit;whiteSpace=wrap;html=1;flipV=1;" vertex="1" parent="1">
          <mxGeometry x="590" y="-560" width="160" height="50" as="geometry" />
        </mxCell>
        <mxCell id="9HgOVvUjEggW6HavxXkO-134" value="&lt;div&gt;конец&lt;/div&gt;" style="strokeWidth=1;html=1;shape=mxgraph.flowchart.terminator;whiteSpace=wrap;" vertex="1" parent="1">
          <mxGeometry x="590" y="-350" width="160" height="50" as="geometry" />
        </mxCell>
        <mxCell id="9HgOVvUjEggW6HavxXkO-135" value="Z_buf" style="strokeWidth=1;html=1;shape=mxgraph.flowchart.terminator;whiteSpace=wrap;" vertex="1" parent="1">
          <mxGeometry x="600" y="-1050" width="100" height="50" as="geometry" />
        </mxCell>
        <mxCell id="9HgOVvUjEggW6HavxXkO-138" value="Z_buf" style="strokeWidth=1;html=1;shape=mxgraph.flowchart.terminator;whiteSpace=wrap;" vertex="1" parent="1">
          <mxGeometry x="332" y="-370" width="76" height="40" as="geometry" />
        </mxCell>
      </root>
    </mxGraphModel>
  </diagram>
</mxfile>
